PathFileType	4	(X/Y/Z)	C:/Users/beibeiliu/ov580/test_trc/capture2\sequence.27_training_dense_right.trc
DataRate	CameraRate	NumFrames	NumMarkers	Units	OrigDataRate	OrigDataStartFrame	OrigNumFrames
120	120	14	19	mm	120	1	347
Frame#	Time	ThumbCMC			ThumbMCP			ThumbIP			ThumbTip			IndexMCP			IndexPIP			IndexTip			MiddleMCP			MiddlePIP			MiddleTip			RingMCP			RingPIP			RingTip			PinkyMCP			PinkyPIP			PinkyTip			BackHand1			BackHand2			BackHand3	
		X0	Y0	Z0	X1	Y1	Z1	X2	Y2	Z2	X3	Y3	Z3	X4	Y4	Z4	X5	Y5	Z5	X6	Y6	Z6	X7	Y7	Z7	X8	Y8	Z8	X9	Y9	Z9	X10	Y10	Z10	X11	Y11	Z11	X12	Y12	Z12	X13	Y13	Z13	X14	Y14	Z14	X15	Y15	Z15	X16	Y16	Z16	X17	Y17	Z17	X18	Y18	Z18	
0	0	138.015	34.2117	29.5629	115.592	21.8119	11.5112	103.065	14.848	-11.9936	93.5749	9.48556	-30.7195	152.167	43.8498	-43.5949	148.304	39.563	-71.2177	144.87	40.768	-91.5159	182.102	45.5441	-47.3015	181.968	42.195	-72.9192	189.424	40.1031	-100.974	200.869	39.3809	-41.5165	207.753	36.3859	-65.6948	216.753	34.0563	-91.2359	219.307	31.5236	-26.3423	232.094	28.5202	-43.8447	246.864	31.4352	-59.2524	194.965	51.0006	7.20769	191.312	57.1492	37.6782	162.54	56.1188	19.7568	
1	0.00833333	135.761	35.34	24.0678	119.386	22.844	12.1723	103.992	16.1307	-13.5148	90.306	10.4176	-27.6723	151.628	44.0329	-44.2145	145.366	41.9103	-71.1192	147.671	41.5216	-96.0955	177.71	45.7122	-47.7564	181.079	42.0689	-78.0154	188.342	40.2413	-104.018	198.152	40.4085	-45.178	210.685	36.5832	-63.1238	214.25	34.421	-92.1252	218.061	31.5921	-26.9559	232.413	28.7776	-45.8982	244.176	30.825	-65.3829	194.283	51.3982	6.10094	191.49	57.2047	36.1036	161.915	57.982	15.4829	
2	0.0166667	134.568	36.8333	28.8045	119.663	23.1484	9.31007	102.228	17.2694	-12.478	92.4611	11.8742	-29.8134	151.834	44.9173	-45.2044	144.731	42.4962	-67.835	148.236	42.4953	-93.3993	177.964	45.83	-53.5796	180.149	41.9765	-78.2415	188.086	39.2273	-106.002	200.45	40.7723	-44.0076	206.08	36.9951	-64.5487	213.94	33.3368	-91.6847	218.349	33.2075	-29.0669	230.997	27.6853	-44.3176	242.77	30.677	-62.1511	195.264	52.3187	4.30262	194.873	58.7095	32.7541	163.905	59.4966	16.3913	
3	0.025	133.106	37.6098	25.49	116.73	24.6173	11.8981	102.14	17.9554	-14.0158	88.8866	12.0691	-29.6786	149.298	45.1581	-43.5965	144.006	41.8328	-72.2962	148.452	42.3065	-95.1333	181.236	45.655	-51.3794	183.557	40.7758	-79.1436	189.34	36.8835	-104.106	198.507	41.4238	-46.1603	207.235	36.7496	-68.6534	211.708	32.0443	-92.7662	217.2	32.6257	-28.0716	228.151	27.2858	-43.1889	244.57	30.114	-65.3438	192.229	54.2739	3.49702	192.876	57.2921	35.1908	160.215	58.7921	12.2989	
4	0.0333333	131.276	38.1168	23.8954	116.982	24.1458	10.7477	100.856	17.716	-12.299	88.2502	11.1574	-29.9092	149.758	44.3858	-47.8595	143.067	41.268	-69.1222	147.667	40.5883	-94.1052	175.339	45.1337	-48.8025	180.239	38.8136	-79.3647	184.684	36.1048	-102.998	196.317	39.1981	-41.553	203.247	35.16	-69.7708	210.825	31.7338	-94.437	216.88	30.8384	-25.3634	228.975	27.2584	-47.6409	243.157	28.1293	-66.0067	191.871	53.0376	6.52949	195.054	58.7844	34.7477	164.566	58.6336	16.18	
5	0.0416667	131.368	36.2042	22.9716	118.278	22.347	10.1859	102.306	16.0961	-7.79661	88.8302	10.4538	-26.3069	145.962	41.674	-46.1429	145.875	38.2874	-71.7961	139.919	39.3963	-96.1571	177.018	42.9854	-48.9732	181.38	37.8625	-75.7337	182.898	33.9548	-101.462	195.011	37.8154	-45.3124	205.134	33.8435	-66.2349	207.323	28.9695	-90.8067	218.336	29.1036	-28.5111	225.074	25.2846	-44.9095	244.007	28.0249	-66.078	195.657	50.2177	3.98401	191.945	56.1283	31.5338	163.9	56.8782	12.0132	
6	0.05	132.045	34.458	23.9458	113.031	22.549	11.9326	95.3966	15.9205	-9.63004	83.3117	9.32522	-24.45	145.599	40.1338	-46.6057	138.978	36.7735	-71.8628	143.797	36.6856	-95.7201	172.65	42.0605	-50.6006	177.279	36.1405	-76.2715	182.138	31.9145	-103.573	197.392	36.7252	-44.7566	204.529	31.9684	-66.5044	209.2	27.4345	-90.5736	213.264	27.7815	-26.8729	228.056	22.4779	-45.8772	242.403	25.3629	-66.6716	190.158	50.7946	5.93635	187.764	55.3732	33.2441	159.829	55.258	12.3209	
7	0.0583333	129.654	33.3229	28.4836	112.18	20.8674	11.8499	95.6374	14.3856	-8.50469	82.133	8.52133	-26.5183	142.278	38.9579	-46.5571	140.769	33.9755	-73.7511	139.925	34.9015	-98.0624	173.535	38.9381	-52.0487	176.235	33.6408	-77.7464	184.019	29.8642	-107.178	196.756	33.7991	-45.2807	204.372	29.5696	-67.691	205.003	25.9396	-91.0624	212.112	26.3068	-25.5117	222.883	21.448	-43.639	240.859	24.7461	-63.475	188.674	49.4881	1.32941	187.261	54.7974	34.8428	156.148	54.7454	15.0086	
8	0.0666667	131.821	31.0327	23.9134	111.606	19.403	12.6243	97.4877	13.2357	-6.94465	82.7709	7.02701	-24.2341	143.596	36.4767	-47.5629	138.777	33.5591	-71.6015	140.919	33.1869	-93.2243	173.197	37.4893	-50.6027	176.285	31.1367	-79.48	179.27	28.3127	-101.037	192.035	33.139	-41.7857	199.541	27.8432	-65.1807	205.93	23.6838	-93.6052	213.26	25.022	-26.7591	222.27	19.5799	-46.6134	240.075	20.5406	-61.15	192.243	47.832	3.38702	190.24	52.2095	32.1598	159.138	52.1353	16.3589	
9	0.075	128.882	30.9121	29.307	110.741	17.0227	12.6955	95.7194	11.8537	-6.40312	81.7035	6.16326	-25.5044	144.977	35.317	-46.9697	136.93	31.0052	-67.329	139	30.3691	-95.4388	169.242	36.1873	-52.9969	174.682	29.5818	-78.5441	177.186	27.647	-101.213	192.241	31.4797	-41.4442	197.509	26.2728	-64.813	203.031	22.0082	-91.5207	214.814	23.2322	-25.9945	222.68	18.2386	-45.1913	235.492	20.9175	-63.9238	186.231	44.3363	6.26476	189.368	49.791	31.6733	160.21	52.2353	17.4982	
10	0.0833333	131.12	29.0134	26.1866	108.577	16.4631	10.8653	92.3794	9.45442	-7.36105	81.6496	3.42941	-26.4609	142.511	34.2324	-42.9295	136.105	29.4885	-71.3332	141.738	29.5214	-93.0793	171.064	33.8139	-51.7145	176.193	29.0353	-74.5042	178.828	25.0744	-101.399	193.619	29.7764	-44.8804	198.532	25.1646	-65.4261	203.127	20.5532	-91.1039	214.779	20.8804	-26.0516	221.775	16.3868	-45.2037	237.067	19.0727	-66.5617	185.998	43.7382	7.84667	187.382	50.7651	35.273	158.592	48.5227	18.1229	
11	0.0916667	129.353	28.3552	30.3157	113.933	15.3659	11.9699	93.4842	8.65189	-11.1625	79.2418	3.1541	-27.7939	140.638	33.2908	-45.4639	138.559	29.5247	-71.1882	139.197	28.0053	-96.109	168.208	33.7443	-48.8329	174.714	28.2764	-76.5211	175.757	24.5017	-102.601	192.798	29.4346	-44.2199	199.698	23.5806	-65.0785	202.645	18.224	-93.1652	210.874	20.8618	-30.7568	223.701	15.5126	-47.4914	238.018	16.3376	-64.4532	188.511	42.8184	2.74162	186.771	49.0247	33.6095	154.753	47.9179	13.5927	
12	0.1	126.669	28.5271	29.1366	112.377	14.9806	11.6774	95.3819	8.60873	-6.40359	81.6485	3.73676	-24.5065	139.536	33.935	-47.5586	138.72	28.8539	-70.8883	136.33	27.4376	-91.5593	168.24	33.426	-53.6902	176.614	25.9081	-78.5264	178.896	21.7604	-102.55	191.562	28.4416	-45.3707	201.419	22.2811	-67.9771	201.387	18.2215	-92.8451	213	20.6904	-29.0506	221.127	14.9475	-46.5512	234.876	15.3569	-65.6482	186.42	44.5213	3.82266	186.273	47.6506	33.0042	154.858	50.2667	16.9754	
13	0.108333	131.024	27.0583	26.8242	111.233	13.9121	11.9509	96.5946	8.64333	-7.97831	82.0816	2.98108	-22.549	143.975	32.2507	-44.3127	140.277	28.5755	-70.1487	137.821	27.0109	-96.856	173.164	32.5161	-48.2307	176.145	26.1137	-74.0381	180.271	20.7687	-104.379	194.532	26.873	-45.3466	195.255	21.6062	-65.8384	202.93	17.212	-88.5398	213.503	19.193	-24.6475	223.748	12.7665	-46.4192	233.082	14.3098	-62.8674	186.248	42.6691	7.52952	187.023	47.0821	32.3705	154.625	49.4573	17.5519	
